<svg width="32" height="28" viewBox="0 0 32 28" fill="none" xmlns="http://www.w3.org/2000/svg">
<path d="M12.3077 25.4545C12.3077 26.1439 12.0641 26.7405 11.5769 27.2443C11.0897 27.7481 10.5128 28 9.84615 28C9.17949 28 8.60256 27.7481 8.11538 27.2443C7.62821 26.7405 7.38462 26.1439 7.38462 25.4545C7.38462 24.7652 7.62821 24.1686 8.11538 23.6648C8.60256 23.161 9.17949 22.9091 9.84615 22.9091C10.5128 22.9091 11.0897 23.161 11.5769 23.6648C12.0641 24.1686 12.3077 24.7652 12.3077 25.4545ZM29.5385 25.4545C29.5385 26.1439 29.2949 26.7405 28.8077 27.2443C28.3205 27.7481 27.7436 28 27.0769 28C26.4103 28 25.8333 27.7481 25.3462 27.2443C24.859 26.7405 24.6154 26.1439 24.6154 25.4545C24.6154 24.7652 24.859 24.1686 25.3462 23.6648C25.8333 23.161 26.4103 22.9091 27.0769 22.9091C27.7436 22.9091 28.3205 23.161 28.8077 23.6648C29.2949 24.1686 29.5385 24.7652 29.5385 25.4545ZM32 3.81818V14C32 14.3182 31.8942 14.5999 31.6827 14.8452C31.4712 15.0904 31.2115 15.233 30.9038 15.2727L10.8269 17.6989C10.9936 18.4943 11.0769 18.9583 11.0769 19.0909C11.0769 19.303 10.9231 19.7273 10.6154 20.3636H28.3077C28.641 20.3636 28.9295 20.4896 29.1731 20.7415C29.4167 20.9934 29.5385 21.2917 29.5385 21.6364C29.5385 21.9811 29.4167 22.2794 29.1731 22.5312C28.9295 22.7831 28.641 22.9091 28.3077 22.9091H8.61538C8.28205 22.9091 7.99359 22.7831 7.75 22.5312C7.50641 22.2794 7.38462 21.9811 7.38462 21.6364C7.38462 21.4905 7.4359 21.2817 7.53846 21.0099C7.64103 20.7382 7.74359 20.4995 7.84615 20.294C7.94872 20.0885 8.08654 19.8234 8.25962 19.4986C8.43269 19.1738 8.53205 18.9782 8.55769 18.9119L5.15385 2.54545H1.23077C0.897436 2.54545 0.608974 2.41951 0.365385 2.16761C0.121795 1.91572 0 1.61742 0 1.27273C0 0.92803 0.121795 0.629735 0.365385 0.377841C0.608974 0.125947 0.897436 0 1.23077 0H6.15385C6.35897 0 6.54167 0.0430871 6.70192 0.129261C6.86218 0.215436 6.98718 0.318182 7.07692 0.4375C7.16667 0.556818 7.25 0.719223 7.32692 0.924716C7.40385 1.13021 7.45513 1.30256 7.48077 1.44176C7.50641 1.58097 7.54167 1.77652 7.58654 2.02841C7.63141 2.2803 7.66026 2.45265 7.67308 2.54545H30.7692C31.1026 2.54545 31.391 2.6714 31.6346 2.9233C31.8782 3.17519 32 3.47348 32 3.81818Z" fill="#FB0303"/>
</svg>
