<svg width="14" height="16" viewBox="0 0 14 16" fill="none" xmlns="http://www.w3.org/2000/svg">
<path d="M6.13594 15.4766C4.23281 13.4862 0 8.66218 0 5.95254C0 2.665 3.13396 0 7 0C10.8646 0 14 2.665 14 5.95254C14 8.66218 9.73437 13.4862 7.86406 15.4766C7.41562 15.9509 6.58437 15.9509 6.13594 15.4766ZM7 7.93671C8.28698 7.93671 9.33333 7.04693 9.33333 5.95254C9.33333 4.85814 8.28698 3.96836 7 3.96836C5.71302 3.96836 4.66667 4.85814 4.66667 5.95254C4.66667 7.04693 5.71302 7.93671 7 7.93671Z" fill="white"/>
</svg>
