<svg width="36" height="35" viewBox="0 0 36 35" fill="none" xmlns="http://www.w3.org/2000/svg">
<rect width="36" height="35" rx="9" fill="#424242"/>
<path d="M27 26L22.9862 21.9791L27 26ZM25.2105 16.6053C25.2105 18.6223 24.4093 20.5567 22.983 21.983C21.5567 23.4093 19.6223 24.2105 17.6053 24.2105C15.5882 24.2105 13.6538 23.4093 12.2275 21.983C10.8013 20.5567 10 18.6223 10 16.6053C10 14.5882 10.8013 12.6538 12.2275 11.2275C13.6538 9.80127 15.5882 9 17.6053 9C19.6223 9 21.5567 9.80127 22.983 11.2275C24.4093 12.6538 25.2105 14.5882 25.2105 16.6053V16.6053Z" stroke="#FB0303" stroke-width="2" stroke-linecap="round"/>
</svg>
